<?xml version="1.0" encoding="UTF-8" standalone="no"?>
<!-- Created with Inkscape (http://www.inkscape.org/) -->

<svg
   xmlns:dc="http://purl.org/dc/elements/1.1/"
   xmlns:cc="http://creativecommons.org/ns#"
   xmlns:rdf="http://www.w3.org/1999/02/22-rdf-syntax-ns#"
   xmlns:svg="http://www.w3.org/2000/svg"
   xmlns="http://www.w3.org/2000/svg"
   xmlns:sodipodi="http://sodipodi.sourceforge.net/DTD/sodipodi-0.dtd"
   xmlns:inkscape="http://www.inkscape.org/namespaces/inkscape"
   width="653.17084"
   height="642.85645"
   id="svg4725"
   version="1.1"
   inkscape:version="0.92.4 (5da689c313, 2019-01-14)"
   sodipodi:docname="crate.svg">
  <defs
     id="defs4727" />
  <sodipodi:namedview
     id="base"
     pagecolor="#ffffff"
     bordercolor="#666666"
     borderopacity="1.0"
     inkscape:pageopacity="0.0"
     inkscape:pageshadow="2"
     inkscape:zoom="0.69999999"
     inkscape:cx="440.40412"
     inkscape:cy="153.15164"
     inkscape:document-units="px"
     inkscape:current-layer="layer1"
     showgrid="false"
     inkscape:window-width="1920"
     inkscape:window-height="1017"
     inkscape:window-x="-8"
     inkscape:window-y="-8"
     inkscape:window-maximized="1"
     fit-margin-top="0"
     fit-margin-left="0"
     fit-margin-right="0"
     fit-margin-bottom="0" />
  <metadata
     id="metadata4730">
    <rdf:RDF>
      <cc:Work
         rdf:about="">
        <dc:format>image/svg+xml</dc:format>
        <dc:type
           rdf:resource="http://purl.org/dc/dcmitype/StillImage" />
        <dc:title></dc:title>
      </cc:Work>
    </rdf:RDF>
  </metadata>
  <g
     inkscape:label="Layer 1"
     inkscape:groupmode="layer"
     id="layer1"
     transform="translate(-0.16037994,0.95589332)">
    <g
       id="g5398"
       transform="matrix(1.0807516,0,0,1.1119501,-78.973758,-251.46785)">
      <path
         sodipodi:nodetypes="ccccc"
         inkscape:connector-curvature="0"
         id="rect4733"
         d="M 75.231514,331.3428 369.82142,413.79076 370.29585,798.48313 76.652651,702.50578 Z"
         style="fill:#502d16;fill-opacity:1;stroke:#000000;stroke-width:4;stroke-miterlimit:4;stroke-opacity:1" />
      <path
         style="fill:#7d4e2f;fill-opacity:1;stroke:#000000;stroke-width:4;stroke-miterlimit:4;stroke-opacity:1"
         d="M 671.42856,300.93362 371.42857,409.50505 370.67096,800.14628 671.42856,682.20121 Z"
         id="path5248"
         inkscape:connector-curvature="0"
         sodipodi:nodetypes="ccccc" />
      <path
         style="fill:#9c582b;fill-opacity:1;stroke:#000000;stroke-width:4;stroke-miterlimit:4;stroke-dasharray:none;stroke-opacity:1"
         d="m 671.57585,641.18171 -297.68259,108.6632 0.78388,50.00975 297.00444,-110.47124 z"
         id="path5270"
         inkscape:connector-curvature="0"
         sodipodi:nodetypes="ccccc" />
      <path
         sodipodi:nodetypes="ccccc"
         inkscape:connector-curvature="0"
         id="path5250"
         d="M 80.214543,328.80297 369.22278,414.50662 670.64458,302.01208 366.16716,232.06477 Z"
         style="fill:#a05a2c;fill-opacity:1;stroke:#000000;stroke-width:4;stroke-miterlimit:4;stroke-opacity:1" />
      <path
         style="fill:#502d16;fill-opacity:1;stroke:#000000;stroke-width:3.79144883;stroke-miterlimit:4;stroke-opacity:1"
         d="M 93.774353,323.65499 367.71434,404.89024 653.42068,298.26091 364.81804,231.9605 Z"
         id="path5294"
         inkscape:connector-curvature="0"
         sodipodi:nodetypes="ccccc" />
      <path
         inkscape:connector-curvature="0"
         id="path5396"
         d="M 238.396,278.58533 119.198,361.41784"
         style="fill:none;stroke:#000000;stroke-width:1px;stroke-linecap:butt;stroke-linejoin:miter;stroke-opacity:1" />
      <path
         style="fill:#502d16;fill-opacity:1;stroke:#000000;stroke-width:3.2297585;stroke-miterlimit:4;stroke-opacity:1"
         d="m 130.15574,324.17809 238.90062,67.59466 249.16195,-88.7247 -251.68779,-55.1676 z"
         id="path5252"
         inkscape:connector-curvature="0"
         sodipodi:nodetypes="ccccc" />
      <path
         inkscape:connector-curvature="0"
         id="path5254"
         d="m 178.57143,309.50504 234.28571,64.28571"
         style="fill:none;stroke:#000000;stroke-width:3;stroke-linecap:butt;stroke-linejoin:miter;stroke-miterlimit:4;stroke-dasharray:none;stroke-opacity:1" />
      <path
         style="fill:none;stroke:#000000;stroke-width:3;stroke-linecap:butt;stroke-linejoin:miter;stroke-miterlimit:4;stroke-dasharray:none;stroke-opacity:1"
         d="m 178.57143,309.50504 234.28571,64.28571"
         id="path5256"
         inkscape:connector-curvature="0" />
      <path
         inkscape:connector-curvature="0"
         id="path5258"
         d="m 228.57143,292.36218 234.28571,64.28571"
         style="fill:none;stroke:#000000;stroke-width:3;stroke-linecap:butt;stroke-linejoin:miter;stroke-miterlimit:4;stroke-dasharray:none;stroke-opacity:1" />
      <path
         style="fill:none;stroke:#000000;stroke-width:3;stroke-linecap:butt;stroke-linejoin:miter;stroke-miterlimit:4;stroke-dasharray:none;stroke-opacity:1"
         d="m 275.71428,277.36218 234.28571,64.28571"
         id="path5260"
         inkscape:connector-curvature="0" />
      <path
         inkscape:connector-curvature="0"
         id="path5262"
         d="M 322.85714,261.64789 557.14285,325.9336"
         style="fill:none;stroke:#000000;stroke-width:3;stroke-linecap:butt;stroke-linejoin:miter;stroke-miterlimit:4;stroke-dasharray:none;stroke-opacity:1" />
      <path
         style="fill:none;stroke:#000000;stroke-width:4.06349611;stroke-linecap:butt;stroke-linejoin:miter;stroke-miterlimit:4;stroke-dasharray:none;stroke-opacity:1"
         d="M 307.14286,443.21933 310,738.07647"
         id="path5302"
         inkscape:connector-curvature="0" />
      <path
         style="fill:#502d16;fill-opacity:1;stroke:#000000;stroke-width:4;stroke-miterlimit:4;stroke-dasharray:none;stroke-opacity:1"
         d="M 75.427563,331.53885 368.11015,414.13062 367.32627,464.14037 75.321833,379.74056 Z"
         id="path5264"
         inkscape:connector-curvature="0"
         sodipodi:nodetypes="ccccc" />
      <path
         sodipodi:nodetypes="ccccc"
         inkscape:connector-curvature="0"
         id="path5266"
         d="m 670.14728,304.03885 -297.68259,108.6632 0.78388,50.00975 297.00444,-110.47124 z"
         style="fill:#7d4e2f;fill-opacity:1;stroke:#000000;stroke-width:4;stroke-miterlimit:4;stroke-dasharray:none;stroke-opacity:1" />
      <path
         inkscape:connector-curvature="0"
         id="path5304"
         d="m 241.42857,428.25523 2.85714,291.24981"
         style="fill:none;stroke:#000000;stroke-width:4.03856277;stroke-linecap:butt;stroke-linejoin:miter;stroke-miterlimit:4;stroke-dasharray:none;stroke-opacity:1" />
      <path
         sodipodi:nodetypes="ccccc"
         inkscape:connector-curvature="0"
         id="path5268"
         d="M 76.856134,668.68171 369.53872,751.27348 369.00738,800.77815 76.750404,716.88342 Z"
         style="fill:#9c582b;fill-opacity:1;stroke:#000000;stroke-width:4;stroke-miterlimit:4;stroke-dasharray:none;stroke-opacity:1" />
      <path
         style="fill:none;stroke:#000000;stroke-width:4;stroke-linecap:butt;stroke-linejoin:miter;stroke-miterlimit:4;stroke-dasharray:none;stroke-opacity:1"
         d="m 635,367.36219 2.85714,285.71428"
         id="path5290"
         inkscape:connector-curvature="0" />
      <path
         inkscape:connector-curvature="0"
         id="path5278"
         d="m 418.57143,446.6479 2.85714,285.71428"
         style="fill:none;stroke:#000000;stroke-width:4;stroke-linecap:butt;stroke-linejoin:miter;stroke-miterlimit:4;stroke-dasharray:none;stroke-opacity:1" />
      <path
         inkscape:connector-curvature="0"
         id="path5282"
         d="M 532.14286,405.21933 535,690.93361"
         style="fill:none;stroke:#000000;stroke-width:4;stroke-linecap:butt;stroke-linejoin:miter;stroke-miterlimit:4;stroke-dasharray:none;stroke-opacity:1" />
      <path
         style="fill:none;stroke:#000000;stroke-width:4;stroke-linecap:butt;stroke-linejoin:miter;stroke-miterlimit:4;stroke-dasharray:none;stroke-opacity:1"
         d="m 474.28572,425.21933 2.85714,285.71428"
         id="path5280"
         inkscape:connector-curvature="0" />
      <path
         inkscape:connector-curvature="0"
         id="path5292"
         d="M 577.14286,387.36219 580,673.07647"
         style="fill:none;stroke:#000000;stroke-width:4;stroke-linecap:butt;stroke-linejoin:miter;stroke-miterlimit:4;stroke-dasharray:none;stroke-opacity:1" />
      <path
         style="fill:#a05a2c;fill-opacity:1;stroke:#000000;stroke-width:3.96571875;stroke-miterlimit:4;stroke-dasharray:none;stroke-opacity:1"
         d="m 669.57147,650.05008 -245.6658,-205.8538 -51.82486,17.89146 257.85015,203.43008 z"
         id="path5272"
         inkscape:connector-curvature="0"
         sodipodi:nodetypes="ccccc" />
      <path
         style="fill:none;stroke:#000000;stroke-width:4.02804375;stroke-linecap:butt;stroke-linejoin:miter;stroke-miterlimit:4;stroke-dasharray:none;stroke-opacity:1"
         d="m 174.28571,408.34188 2.85714,289.73459"
         id="path5306"
         inkscape:connector-curvature="0" />
      <path
         style="fill:#a05a2c;fill-opacity:1;stroke:#000000;stroke-width:4.94638777;stroke-miterlimit:4;stroke-dasharray:none;stroke-opacity:1"
         d="M 369.31573,756.62986 138.21403,399.98249 79.540688,382.62208 308.15204,739.75265 Z"
         id="path5298"
         inkscape:connector-curvature="0"
         sodipodi:nodetypes="ccccc" />
      <path
         inkscape:connector-curvature="0"
         id="path5308"
         d="m 118.57142,396.6479 2.85714,285.71428"
         style="fill:none;stroke:#000000;stroke-width:4;stroke-linecap:butt;stroke-linejoin:miter;stroke-miterlimit:4;stroke-dasharray:none;stroke-opacity:1" />
      <path
         inkscape:connector-curvature="0"
         id="path5378"
         d="m 284.86302,480.61584 c 0,6.73435 0,13.4687 0,20.20305 0,2.02031 -0.49,4.10093 0,6.06092 1.80215,7.20863 6.28745,13.02797 8.08122,20.20305 0.43211,1.72844 0,8.08221 0,10.10152 0,10.10153 0,20.20306 0,30.30458 0,4.71405 0,9.42809 0,14.14214 0,0.67343 -0.21296,1.38143 0,2.0203 0.47619,1.42857 1.54411,2.61204 2.0203,4.04061 0.42269,1.26805 0,6.45481 0,8.08122 0,2.63193 0.44954,7.85385 0,10.10153 -0.41764,2.08823 -1.5038,3.99491 -2.0203,6.06091 -0.16333,0.65333 0,1.34687 0,2.02031 -0.67344,2.69374 -1.14226,5.44706 -2.02031,8.08122 -0.47619,1.42857 -1.65508,2.57972 -2.0203,4.04061 -0.32667,1.30665 0.42592,2.76286 0,4.04061 -0.30117,0.90351 -1.34687,1.34687 -2.02031,2.0203 -0.67343,2.02031 -1.5038,3.99491 -2.0203,6.06092 -0.46929,1.87714 0.60191,8.8977 0,10.10152 -0.42592,0.85184 -1.71914,1.1168 -2.02031,2.02031 0,9.197 0.95238,0.11554 -2.0203,6.06092 -0.30117,0.60233 0,1.34687 0,2.0203 0,0.67344 0,1.34687 0,2.02031 0,3.36717 0,6.73435 0,10.10152 0,0.67344 0.30117,1.41797 0,2.02031 -0.42592,0.85183 -1.59439,1.16847 -2.02031,2.0203 -0.30117,0.60234 0,1.34687 0,2.02031 0,0.67343 0,1.34687 0,2.0203 0,3.36718 0,6.73435 0,10.10153 0,0.67343 0.30117,1.41796 0,2.0203 -0.42592,0.85184 -1.59439,1.16847 -2.0203,2.02031 -0.30117,0.60234 0.47619,1.54411 0,2.0203 -0.47619,0.47619 -1.54412,-0.47619 -2.02031,0 -0.47619,0.47619 0.30117,1.41797 0,2.02031 -0.42592,0.85183 -1.59439,1.16847 -2.0203,2.0203 -0.30117,0.60234 0.30117,1.41797 0,2.02031 -0.42592,0.85183 -1.59439,1.16847 -2.02031,2.0203 -0.30117,0.60234 0.30117,1.41797 0,2.02031 -0.42592,0.85183 -1.34687,1.34687 -2.0203,2.0203 -0.67344,0.67344 -1.34687,1.34687 -2.02031,2.02031"
         style="fill:none;stroke:#000000;stroke-width:1px;stroke-linecap:butt;stroke-linejoin:miter;stroke-opacity:1" />
      <path
         sodipodi:nodetypes="ccccc"
         inkscape:connector-curvature="0"
         id="path5274"
         d="M 360.72636,756.52525 125.77531,396.62026 79.728871,382.79539 308.19537,741.43375 Z"
         style="fill:#502d16;fill-opacity:1;stroke:#000000;stroke-width:4.94638777;stroke-miterlimit:4;stroke-dasharray:none;stroke-opacity:1" />
      <path
         sodipodi:nodetypes="ccccc"
         inkscape:connector-curvature="0"
         id="path5296"
         d="M 670.53848,650.29888 371.89876,759.30014 370.67283,799.82885 671.65578,688.99712 Z"
         style="fill:#7d4e2f;fill-opacity:1;stroke:#000000;stroke-width:4.05160475;stroke-miterlimit:4;stroke-dasharray:none;stroke-opacity:1" />
      <path
         inkscape:connector-curvature="0"
         id="path5332"
         d="m 518.20826,466.47371 c 0,7.40778 0,14.81557 0,22.22335 0,2.35702 -0.26029,4.72846 0,7.07107 0.31394,2.8255 1.97825,6.63624 3.03045,9.09137 1.61378,3.76547 1.23696,0.80428 2.02031,7.07107 0.12529,1.00235 -0.14286,2.03046 0,3.03046 2.00498,14.03485 -0.0512,-2.22515 2.0203,6.06091 0.16334,0.65333 0,1.34687 0,2.02031 0,0.67343 0,1.34687 0,2.0203 0,2.69374 0,5.38748 0,8.08122 0,1.68359 -0.27678,3.39009 0,5.05077 0.17505,1.0503 0.80133,1.98634 1.01016,3.03045 0.1981,0.99054 0,2.02031 0,3.03046 0,3.36718 0,6.73435 0,10.10153 0,4.04061 0,8.08122 0,12.12183 0,0.91051 0.21193,4.41497 0,5.05076 -0.2381,0.71429 -0.82755,1.28986 -1.01016,2.02031 -0.16333,0.65332 0,1.34687 0,2.0203 0,0.67344 0,1.34687 0,2.02031 0,3.70389 0,7.40778 0,11.11167 0,0.47629 0.0458,5.00499 0,5.05077 -0.23809,0.23809 -0.77205,-0.2381 -1.01015,0 -0.33678,0.33678 0.33678,1.68352 0,2.0203 -0.23809,0.2381 -0.77206,-0.23809 -1.01015,0 -0.2381,0.2381 0.23809,0.77206 0,1.01015 -0.2381,0.2381 -0.77206,-0.23809 -1.01015,0 -0.47619,0.4762 0.30117,1.41797 0,2.02031 -0.21296,0.42592 -0.7972,0.58423 -1.01016,1.01015 -0.63533,1.27068 1.45078,2.02031 -1.01015,2.02031"
         style="fill:none;stroke:#000000;stroke-width:1px;stroke-linecap:butt;stroke-linejoin:miter;stroke-opacity:1" />
      <path
         inkscape:connector-curvature="0"
         id="path5348"
         d="m 593.9697,556.37728 c -0.0218,3.07493 -0.38711,5.2867 1.01015,8.08122 0.21296,0.42592 0.89466,0.54818 1.01015,1.01016 0.245,0.97999 0,2.0203 0,3.03045 0,0.33672 -0.10648,0.69072 0,1.01016 0.2381,0.71428 0.77206,1.30602 1.01015,2.0203 0.10648,0.31944 -0.10648,0.69072 0,1.01015 0.70711,2.12132 2.32336,3.9396 3.03046,6.06092 0.21134,0.63402 0,3.2274 0,4.04061 0,2.69374 0,5.38748 0,8.08122 0,0.67343 0,1.34687 0,2.0203 0,1.01016 -0.245,2.05047 0,3.03046 0.1155,0.46197 0.89466,0.54818 1.01015,1.01015 0,7.70609 -0.45175,-0.79686 1.01016,5.05077 0.19204,0.76818 0,4.20487 0,5.05076 0,2.69374 0,5.38748 0,8.08122 0,0.52823 -0.13281,3.775 0,4.04061 0.21296,0.42592 0.79719,0.58424 1.01015,1.01015 0.15371,0.30743 0,2.57553 0,3.03046 0,2.02031 0,4.04061 0,6.06092 0,4.37732 0,8.75465 0,13.13198 0,0.47628 0.0458,5.00498 0,5.05076 -0.2381,0.2381 -0.77206,-0.23809 -1.01015,0 -0.2381,0.2381 0.15058,0.70899 0,1.01015 -0.21296,0.42592 -0.7972,0.58424 -1.01016,1.01016 -0.15058,0.30117 0.2381,0.77205 0,1.01015 -0.23809,0.23809 -0.77205,-0.2381 -1.01015,0 -0.23809,0.23809 0.15059,0.70898 0,1.01015 -0.21296,0.42592 -0.67343,0.67344 -1.01015,1.01015 -0.33672,0.33672 -0.58424,0.7972 -1.01015,1.01016 -0.30117,0.15058 -0.77206,-0.2381 -1.01016,0 -1.34687,1.34687 1.68359,1.01015 -1.01015,1.01015"
         style="fill:none;stroke:#000000;stroke-width:1px;stroke-linecap:butt;stroke-linejoin:miter;stroke-opacity:1" />
      <path
         sodipodi:nodetypes="ccccc"
         inkscape:connector-curvature="0"
         id="path5276"
         d="M 669.78688,649.7295 432.62684,440.64711 380.67449,459.84432 635.48486,662.89096 Z"
         style="fill:#7d4e2f;fill-opacity:1;stroke:#000000;stroke-width:4.01022339;stroke-miterlimit:4;stroke-dasharray:none;stroke-opacity:1" />
      <path
         style="fill:#502d16;fill-opacity:1;stroke:#000000;stroke-width:4;stroke-miterlimit:4;stroke-dasharray:none;stroke-opacity:1"
         d="m 77.213277,675.82457 290.896873,82.59177 -0.1742,39.86181 -291.542688,-82.46616 z"
         id="path5300"
         inkscape:connector-curvature="0"
         sodipodi:nodetypes="ccccc" />
      <path
         sodipodi:nodetypes="ccccc"
         inkscape:connector-curvature="0"
         id="path5310"
         d="m 356.52802,233.17269 c -9.63817,67.91245 -17.02327,110.06854 15.44807,176.134 92.9141,-32.50707 198.68534,-72.15699 291.59945,-104.66407 -78.908,-21.02261 -209.24453,-54.90236 -292.43824,-74.49641 -86.47744,26.03566 71.86818,-23.00917 -14.60928,3.02648 z"
         style="opacity:0.15929206;fill:#d38d5f;fill-opacity:1;stroke:none" />
      <path
         inkscape:connector-curvature="0"
         id="path5320"
         d="m 368.92858,403.07647 0.71428,10 v 0"
         style="fill:none;stroke:#000000;stroke-width:8;stroke-linecap:butt;stroke-linejoin:miter;stroke-miterlimit:4;stroke-dasharray:none;stroke-opacity:1" />
      <path
         inkscape:connector-curvature="0"
         id="path5322"
         d="m 390.92904,526.07271 c 0,4.04061 0,8.08122 0,12.12183 0,1.01015 -0.31944,2.07214 0,3.03045 0.15058,0.45176 0.85956,0.5584 1.01015,1.01016 0.21296,0.63887 -0.30117,1.41796 0,2.0203 0.15058,0.30117 0.77205,-0.23809 1.01015,0 0.27689,0.2769 -0.23677,4.34047 0,5.05077 0.2381,0.71428 0.77206,1.30601 1.01015,2.0203 0.21296,0.63888 0,1.34687 0,2.02031"
         style="fill:none;stroke:#000000;stroke-width:1px;stroke-linecap:butt;stroke-linejoin:miter;stroke-opacity:1" />
      <path
         inkscape:connector-curvature="0"
         id="path5324"
         d="m 391.93919,601.83415 c 0,5.7242 0,11.44839 0,17.17259 0,0.37097 0.0407,3.99996 0,4.04061 -0.2381,0.2381 -0.77206,-0.23809 -1.01015,0 -0.33796,0.33796 0.33795,1.68235 0,2.02031 -0.2381,0.23809 -0.77206,-0.2381 -1.01016,0 -0.50507,0.50507 0.50508,2.52538 0,3.03045 -0.23809,0.2381 -0.77205,-0.23809 -1.01015,0 -1.34687,1.34687 1.68359,1.01016 -1.01015,1.01016"
         style="fill:none;stroke:#000000;stroke-width:1px;stroke-linecap:butt;stroke-linejoin:miter;stroke-opacity:1" />
      <path
         inkscape:connector-curvature="0"
         id="path5326"
         d="m 448.50773,593.75293 c 0,3.03045 0,6.06091 0,9.09137 0,0.67343 -0.13207,1.35995 0,2.02031 0.20882,1.04411 0.80133,1.98634 1.01015,3.03045 0.13207,0.66036 0,1.34687 0,2.02031 0,1.68359 0,3.36717 0,5.05076 0,5.38748 0,10.77496 0,16.16244"
         style="fill:none;stroke:#000000;stroke-width:1px;stroke-linecap:butt;stroke-linejoin:miter;stroke-opacity:1" />
      <path
         inkscape:connector-curvature="0"
         id="path5328"
         d="m 502.04582,604.86461 c 0,3.36717 0,6.73435 0,10.10152 0,0.67344 0.21295,1.38143 0,2.02031 -0.15059,0.45175 -0.85957,0.55839 -1.01016,1.01015 -0.15413,0.46241 0,4.48694 0,5.05076 0,0.716 0.13059,5.79974 0,6.06092 -1.24825,2.49649 -1.01015,-0.34869 -1.01015,2.0203"
         style="fill:none;stroke:#000000;stroke-width:1px;stroke-linecap:butt;stroke-linejoin:miter;stroke-opacity:1" />
      <path
         inkscape:connector-curvature="0"
         id="path5330"
         d="m 499.01536,667.49406 c 0,4.04061 0,8.08122 0,12.12183"
         style="fill:none;stroke:#000000;stroke-width:1px;stroke-linecap:butt;stroke-linejoin:miter;stroke-opacity:1" />
      <path
         inkscape:connector-curvature="0"
         id="path5334"
         d="m 558.61436,429.09806 c 0,11.78512 0,23.57023 0,35.35534"
         style="fill:none;stroke:#000000;stroke-width:1px;stroke-linecap:butt;stroke-linejoin:miter;stroke-opacity:1" />
      <path
         inkscape:connector-curvature="0"
         id="path5336"
         d="m 620.23366,403.84425 c 0,0.56457 0,3.6472 0,5.05076"
         style="fill:none;stroke:#000000;stroke-width:1px;stroke-linecap:butt;stroke-linejoin:miter;stroke-opacity:1" />
      <path
         inkscape:connector-curvature="0"
         id="path5338"
         d="m 402.04071,416.97623 c 2.05142,-0.99753 8.3642,0.5495 11.11168,0 0.7383,-0.14766 1.34687,-0.67343 2.02031,-1.01015 1.34687,-0.33672 2.67924,-0.73788 4.04061,-1.01015 0.33018,-0.066 0.67343,0 1.01015,0 0.67343,-0.33672 1.30602,-0.77206 2.0203,-1.01016 0.31944,-0.10648 0.70899,0.15059 1.01016,0 0.42591,-0.21295 0.58423,-0.79719 1.01015,-1.01015 0.30117,-0.15058 0.77206,0.2381 1.01015,0 0.2381,-0.23809 -0.23809,-0.77206 0,-1.01015 0.47619,-0.47619 1.38143,0.21296 2.02031,0 3.48221,-1.16074 0.74828,-1.01015 3.03045,-1.01015"
         style="fill:none;stroke:#000000;stroke-width:1px;stroke-linecap:butt;stroke-linejoin:miter;stroke-opacity:1" />
      <path
         inkscape:connector-curvature="0"
         id="path5340"
         d="m 483.86307,406.87471 c 1.34687,-0.33672 2.69374,-0.67344 4.04061,-1.01016 0.33672,-0.33671 0.58423,-0.79719 1.01015,-1.01015 0.60234,-0.30117 1.54412,0.47619 2.02031,0 0.23809,-0.23809 -0.2381,-0.77206 0,-1.01015 0.47619,-0.47619 1.54411,0.47619 2.0203,0 0.2381,-0.2381 -0.23809,-0.77206 0,-1.01015 0.20651,-0.20652 2.62994,0.20025 3.03046,0 0.42592,-0.21296 0.5584,-0.85957 1.01015,-1.01016 0.005,-0.002 3.0295,9.7e-4 3.03046,0 0.2381,-0.23809 -0.2381,-0.77205 0,-1.01015 0.36286,-0.36286 3.38709,0.32676 4.04061,0 0.60234,-0.30117 -0.47619,-1.54411 0,-2.0203 0.24307,-0.24308 3.79754,0.24307 4.04061,0 0.2381,-0.2381 -0.23809,-0.77206 0,-1.01016 0.2381,-0.23809 0.70898,0.15059 1.01015,0 0.42592,-0.21296 0.58424,-0.79719 1.01016,-1.01015 0.60233,-0.30117 1.38142,0.21296 2.0203,0 3.48221,-1.16074 0.74828,-1.01015 3.03046,-1.01015"
         style="fill:none;stroke:#000000;stroke-width:1px;stroke-linecap:butt;stroke-linejoin:miter;stroke-opacity:1" />
      <path
         inkscape:connector-curvature="0"
         id="path5342"
         d="m 587.90878,377.58028 c 5.15601,-0.91913 8.50366,-5.0875 13.13198,-7.07107 0.61899,-0.26527 1.37279,0.18501 2.02031,0 1.74351,-0.49814 3.36717,-1.34687 5.05076,-2.0203"
         style="fill:none;stroke:#000000;stroke-width:1px;stroke-linecap:butt;stroke-linejoin:miter;stroke-opacity:1" />
      <path
         inkscape:connector-curvature="0"
         id="path5344"
         d="m 608.11183,469.50416 c -1.02476,2.401 -1.01015,3.81776 -1.01015,6.06092"
         style="fill:none;stroke:#000000;stroke-width:1px;stroke-linecap:butt;stroke-linejoin:miter;stroke-opacity:1" />
      <path
         inkscape:connector-curvature="0"
         id="path5346"
         d="m 605.08137,508.90011 18.18275,53.53809"
         style="fill:none;stroke:#000000;stroke-width:1px;stroke-linecap:butt;stroke-linejoin:miter;stroke-opacity:1" />
      <path
         inkscape:connector-curvature="0"
         id="path5350"
         d="m 649.52809,427.07776 c 0,3.70389 0,7.40778 0,11.11168 0,0.67343 0.21296,1.38142 0,2.0203 -0.15059,0.45175 -0.89466,0.54818 -1.01016,1.01015 -0.32666,1.30666 0,2.69374 0,4.04061 0,3.36718 0,6.73435 0,10.10153"
         style="fill:none;stroke:#000000;stroke-width:1px;stroke-linecap:butt;stroke-linejoin:miter;stroke-opacity:1" />
      <path
         inkscape:connector-curvature="0"
         id="path5352"
         d="m 663.67022,528.09301 c 0,9.76481 0,19.52962 0,29.29443 0,2.0203 0,4.04061 0,6.06091 0,0.33672 0,0.67344 0,1.01015 0,0.33672 0.15059,0.70899 0,1.01016 -0.21296,0.42591 -0.79719,0.58423 -1.01015,1.01015 -0.15058,0.30117 0,0.67343 0,1.01015 0,0.33672 0,0.67344 0,1.01015"
         style="fill:none;stroke:#000000;stroke-width:1px;stroke-linecap:butt;stroke-linejoin:miter;stroke-opacity:1" />
      <path
         inkscape:connector-curvature="0"
         id="path5354"
         d="m 653.5687,583.6514 c 0,4.37733 0,8.75466 0,13.13198 0,0.24499 -0.0325,2.99798 0,3.03046 0.23809,0.2381 0.67343,0 1.01015,0"
         style="fill:none;stroke:#000000;stroke-width:1px;stroke-linecap:butt;stroke-linejoin:miter;stroke-opacity:1" />
      <path
         inkscape:connector-curvature="0"
         id="path5356"
         d="m 338.4011,482.63615 c 0,5.72419 0,11.44839 0,17.17259 0,0.67344 -0.0835,1.35207 0,2.02031 0.25405,2.03235 0.78397,4.02527 1.01016,6.06091 0.11155,1.00397 0,2.02031 0,3.03046 0,1.34687 0,2.69374 0,4.04061 0,0.67343 -0.0952,1.35364 0,2.0203 0.33671,1.68359 0.67343,3.36718 1.01015,5.05077 0.33672,0.67343 0.82754,1.28986 1.01015,2.0203 0.49676,1.98702 0.56584,4.06152 1.01015,6.06092 2.01626,9.07314 0.14568,-5.90563 2.02031,9.09137 0.0835,0.66823 0,1.34687 0,2.0203 0,2.02031 0,4.04061 0,6.06092 0,6.73435 0,13.4687 0,20.20305 0,6.73435 0,13.4687 0,20.20305 0,0.30699 -0.1642,8.59879 0,9.09137 0.10648,0.31944 0.90367,-0.31943 1.01015,0 0.31944,0.95832 0,2.02031 0,3.03046 0,2.35702 0,4.71405 0,7.07107 0,4.04061 0,8.08122 0,12.12183 0,1.17902 0.19702,5.27282 0,6.06092 -0.18261,0.73044 -0.77206,1.30602 -1.01015,2.0203 -0.10648,0.31944 0.10648,0.69072 0,1.01015 -0.2381,0.71429 -0.77206,1.30602 -1.01015,2.02031 -0.24073,0.72216 0,5.93672 0,7.07107 0,0.33671 0.23809,0.77205 0,1.01015 -0.2381,0.23809 -0.77206,-0.2381 -1.01016,0 -0.23809,0.23809 0.10648,0.69071 0,1.01015 -0.23809,0.71429 -0.77205,1.30602 -1.01015,2.02031 -0.10648,0.31943 0.10648,0.69071 0,1.01015 -0.47619,1.42857 -1.54411,2.61204 -2.0203,4.04061 -0.10648,0.31944 0.15058,0.70898 0,1.01015 -0.54295,1.08588 -1.47737,1.94458 -2.02031,3.03046 -0.15058,0.30117 0,0.67343 0,1.01015 -0.33672,1.01015 -0.37128,2.17862 -1.01015,3.03046 -0.45176,0.60234 -1.48791,0.47776 -2.02031,1.01015 -0.47619,0.47619 0.21296,1.38143 0,2.02031 -0.23809,0.71428 -0.47775,1.48791 -1.01015,2.0203 -0.3352,0.3352 -1.68511,-0.33519 -2.02031,0 -0.47619,0.47619 0.30117,1.41797 0,2.02031 -0.21295,0.42592 -0.79719,0.58423 -1.01015,1.01015 -0.15058,0.30117 0.2381,0.77206 0,1.01015 -0.23809,0.2381 -0.77205,-0.23809 -1.01015,0 -0.47619,0.47619 0.67343,2.02031 0,2.02031 -0.33672,0 0,-1.34687 0,-1.01015 0,1.68358 0,3.36717 0,5.05076"
         style="fill:none;stroke:#000000;stroke-width:2;stroke-linecap:butt;stroke-linejoin:miter;stroke-miterlimit:4;stroke-dasharray:16, 2;stroke-dashoffset:2.4000001;stroke-opacity:1" />
      <path
         inkscape:connector-curvature="0"
         id="path5360"
         d="m 92.934034,490.71737 c 0,12.12183 0,24.24366 0,36.36549 0,2.33856 -0.450923,8.29783 0,10.10152 -3.658478,8.45248 3.188775,2.33694 4.04061,4.04061 0.295566,0.59114 0,10.46822 0,12.12184"
         style="fill:none;stroke:#000000;stroke-width:1px;stroke-linecap:butt;stroke-linejoin:miter;stroke-opacity:1" />
      <path
         inkscape:connector-curvature="0"
         id="path5362"
         d="m 151.52288,571.52957 c 0,9.42809 0,18.85618 0,28.28427"
         style="fill:none;stroke:#000000;stroke-width:1px;stroke-linecap:butt;stroke-linejoin:miter;stroke-opacity:1" />
      <path
         inkscape:connector-curvature="0"
         id="path5364"
         d="m 139.40105,650.32147 c 5.98954,1.0095 7.7455,7.18397 12.12183,10.10153 0.56033,0.37355 1.54412,-0.4762 2.02031,0 0.47619,0.47619 -0.47619,1.54411 0,2.0203 2.69374,2.69374 2.0203,-3.36717 2.0203,2.02031"
         style="fill:none;stroke:#000000;stroke-width:1px;stroke-linecap:butt;stroke-linejoin:miter;stroke-opacity:1" />
      <path
         inkscape:connector-curvature="0"
         id="path5366"
         d="m 208.09142,656.38239 c 0.67344,3.36717 1.34687,6.73435 2.02031,10.10152 0.67343,0.67344 1.71914,1.1168 2.0203,2.02031 0.42592,1.27775 -0.60233,2.83593 0,4.04061 0.30117,0.60233 1.54412,-0.47619 2.02031,0 0.065,0.065 0,5.57093 0,6.06091"
         style="fill:none;stroke:#000000;stroke-width:1px;stroke-linecap:butt;stroke-linejoin:miter;stroke-opacity:1" />
      <path
         inkscape:connector-curvature="0"
         id="path5368"
         d="m 224.25386,440.20974 c 0,6.06092 0,12.12183 0,18.18275 0,0.67343 0.16334,1.36697 0,2.0203 -0.5165,2.06601 -1.6702,3.9603 -2.0203,6.06092 -0.44285,2.65709 0,5.38748 0,8.08122 0,5.38748 0,10.77496 0,16.16244"
         style="fill:none;stroke:#000000;stroke-width:1px;stroke-linecap:butt;stroke-linejoin:miter;stroke-opacity:1" />
      <path
         inkscape:connector-curvature="0"
         id="path5370"
         d="m 179.80715,500.81889 c 0,10.77496 0,10.77496 0,0 z"
         style="fill:none;stroke:#000000;stroke-width:1px;stroke-linecap:butt;stroke-linejoin:miter;stroke-opacity:1" />
      <path
         inkscape:connector-curvature="0"
         id="path5372"
         d="m 264.65997,630.11842 c 20.50918,-3.46404 1.02891,9.11014 4.04061,12.12183 0.47619,0.47619 1.54411,-0.47619 2.0203,0 0.95238,0.95238 -0.60234,2.83593 0,4.04061 4.20401,8.40803 -0.13947,-2.15978 4.04061,2.0203 0.95238,0.95239 -0.60234,2.83594 0,4.04061 0.42592,0.85184 1.59439,1.16847 2.02031,2.02031 0.30117,0.60234 -0.47619,1.54411 0,2.02031 0.47619,0.47619 1.54411,-0.4762 2.0203,0 0.47619,0.47619 0,1.34687 0,2.0203 0,0.67344 0.67344,2.02031 0,2.02031 -0.67343,0 0,-1.34687 0,-2.02031"
         style="fill:none;stroke:#000000;stroke-width:1px;stroke-linecap:butt;stroke-linejoin:miter;stroke-opacity:1" />
      <path
         inkscape:connector-curvature="0"
         id="path5374"
         d="m 458.60926,492.73767 c 24.755,14.85301 0.14986,-1.87044 14.14213,12.12183 0.47619,0.47619 1.54412,-0.47619 2.02031,0 1.06479,1.0648 0.95551,2.97582 2.0203,4.04061 0.47619,0.47619 1.34687,0 2.02031,0 1.34687,0 2.83593,-0.60234 4.04061,0 0.60234,0.30117 -0.47619,1.54412 0,2.02031 0.47619,0.47619 1.54411,-0.47619 2.0203,0 0.47619,0.47619 0.67344,2.0203 0,2.0203 -0.67343,0 0,-1.34687 0,-2.0203"
         style="fill:none;stroke:#000000;stroke-width:1px;stroke-linecap:butt;stroke-linejoin:miter;stroke-opacity:1" />
      <path
         inkscape:connector-curvature="0"
         id="path5376"
         d="m 600.03061,601.83415 c 0,3.36717 0,6.73435 0,10.10152 0,0.67344 -0.30117,1.41797 0,2.02031 1.02837,2.05673 4.42045,3.22038 6.06092,4.04061"
         style="fill:none;stroke:#000000;stroke-width:1px;stroke-linecap:butt;stroke-linejoin:miter;stroke-opacity:1" />
      <path
         inkscape:connector-curvature="0"
         id="path5382"
         d="M 345.47217,771.53978 242.43661,751.33672"
         style="fill:none;stroke:#000000;stroke-width:1px;stroke-linecap:butt;stroke-linejoin:miter;stroke-opacity:1" />
      <path
         inkscape:connector-curvature="0"
         id="path5384"
         d="M 161.62441,719.01184 90.913729,694.76818"
         style="fill:none;stroke:#000000;stroke-width:1px;stroke-linecap:butt;stroke-linejoin:miter;stroke-opacity:1" />
      <path
         inkscape:connector-curvature="0"
         id="path5386"
         d="m 414.16254,767.49916 c 2.69374,0 8.08122,-2.69374 8.08122,0 0,2.69375 -9.98598,1.90477 -8.08122,0 2.42811,-2.4281 6.73435,-1.34687 10.10153,-2.0203"
         style="fill:none;stroke:#000000;stroke-width:1px;stroke-linecap:butt;stroke-linejoin:miter;stroke-opacity:1" />
      <path
         inkscape:connector-curvature="0"
         id="path5388"
         d="m 507.09658,745.27581 c 2.69374,-2.02031 6.06091,-8.75466 8.08122,-6.06092 2.0203,2.69374 -9.58707,9.07261 -8.08122,6.06092 3.36717,-3.36718 6.73435,-6.73435 10.10152,-10.10153 0.67344,0 1.41797,0.30117 2.02031,0 4.467,-2.2335 0.62694,-1.25388 2.0203,-4.04061 0.42592,-0.85183 1.34687,-1.34687 2.02031,-2.0203 0.67343,-0.67344 1.16847,-1.59439 2.0203,-2.02031 0.60234,-0.30117 1.41797,0.30117 2.02031,0 2.49649,-1.24824 2.0203,-1.95057 2.0203,-4.04061"
         style="fill:none;stroke:#000000;stroke-width:1px;stroke-linecap:butt;stroke-linejoin:miter;stroke-opacity:1" />
      <path
         inkscape:connector-curvature="0"
         id="path5390"
         d="m 303.04576,323.03205 c 3.88368,1.58485 8.15969,-0.79243 12.12183,0 2.08824,0.41764 3.99491,1.5038 6.06092,2.0203 1.44935,0.36234 7.59445,-0.48677 8.08122,0 0.47619,0.47619 -0.47619,1.54411 0,2.02031 0.72572,0.72572 6.77418,-0.65352 8.08122,0 1.70367,0.85183 2.33694,3.18877 4.04061,4.04061 1.20468,0.60233 2.7199,-0.26415 4.04061,0 17.01032,3.40206 0.0624,0.0312 8.08122,4.04061 0.60234,0.30117 1.54412,-0.47619 2.02031,0 1.06479,1.06479 1.54411,2.61203 2.0203,4.04061 0.67344,2.0203 -1.42857,2.89098 2.02031,4.04061 1.27775,0.42591 2.83593,-0.60234 4.04061,0 0.83861,0.4193 -0.7052,5.35571 0,6.06091 1.85219,1.85219 6.06091,-4.84419 6.06091,2.02031"
         style="fill:none;stroke:#000000;stroke-width:1px;stroke-linecap:butt;stroke-linejoin:miter;stroke-opacity:1" />
      <path
         inkscape:connector-curvature="0"
         id="path5392"
         d="m 422.24376,329.09296 c -6.06091,0 -12.12183,0 -18.18274,0"
         style="fill:none;stroke:#000000;stroke-width:1px;stroke-linecap:butt;stroke-linejoin:miter;stroke-opacity:1" />
      <path
         inkscape:connector-curvature="0"
         id="path5394"
         d="m 450.52803,284.64625 c 4.98821,2.26809 9.0829,2.0203 14.14214,2.0203"
         style="fill:none;stroke:#000000;stroke-width:1px;stroke-linecap:butt;stroke-linejoin:miter;stroke-opacity:1" />
    </g>
  </g>
</svg>
